<svg width="24" height="24" viewBox="0 0 24 24" fill="none" xmlns="http://www.w3.org/2000/svg">
<path d="M18.3641 4.63599C20.0164 6.28813 20.9614 8.51811 20.9993 10.8544C21.0372 13.1907 20.1649 15.4502 18.5671 17.155L18.3641 17.365L14.1211 21.607C13.5827 22.145 12.8599 22.4583 12.0992 22.4834C11.3385 22.5084 10.5967 22.2434 10.0241 21.742L9.88006 21.607L5.63606 17.364C3.94822 15.6762 3 13.387 3 11C3 8.61303 3.94822 6.32383 5.63606 4.63599C7.32389 2.94816 9.61309 1.99994 12.0001 1.99994C14.387 1.99994 16.6762 2.94816 18.3641 4.63599ZM12.0001 7.99999C11.6061 7.99999 11.216 8.07759 10.852 8.22836C10.488 8.37912 10.1573 8.6001 9.87873 8.87867C9.60016 9.15725 9.37918 9.48797 9.22842 9.85194C9.07765 10.2159 9.00006 10.606 9.00006 11C9.00006 11.394 9.07765 11.7841 9.22842 12.148C9.37918 12.512 9.60016 12.8427 9.87873 13.1213C10.1573 13.3999 10.488 13.6209 10.852 13.7716C11.216 13.9224 11.6061 14 12.0001 14C12.7957 14 13.5588 13.6839 14.1214 13.1213C14.684 12.5587 15.0001 11.7956 15.0001 11C15.0001 10.2043 14.684 9.44128 14.1214 8.87867C13.5588 8.31606 12.7957 7.99999 12.0001 7.99999Z" fill="#D5003C"/>
<path d="M12 1.49994C14.5195 1.49994 16.9362 2.50059 18.7178 4.28217C20.4619 6.02608 21.459 8.38053 21.499 10.8466C21.5389 13.3126 20.6182 15.6975 18.9316 17.497L18.9268 17.5029L18.7236 17.7128L18.7178 17.7187L14.4746 21.9609C13.8465 22.5885 13.0027 22.9541 12.1152 22.9833C11.2279 23.0125 10.3623 22.703 9.69434 22.1181L9.68848 22.1122L9.68164 22.1064L9.53809 21.9716L9.53223 21.9667L9.52637 21.9609L5.28223 17.7177C3.50066 15.9361 2.5 13.5195 2.5 10.9999C2.50001 8.48039 3.50063 6.06376 5.28223 4.28217C7.06382 2.50057 9.48045 1.49995 12 1.49994ZM12 8.49994C11.6717 8.49995 11.3463 8.56474 11.043 8.69037C10.7398 8.816 10.4645 9.0003 10.2324 9.23236C10.0004 9.46442 9.81606 9.73973 9.69043 10.0429C9.5648 10.3462 9.50001 10.6717 9.5 10.9999C9.5 11.3282 9.56479 11.6537 9.69043 11.957C9.81605 12.2602 10.0004 12.5354 10.2324 12.7675C10.4645 12.9996 10.7398 13.1839 11.043 13.3095C11.3463 13.4351 11.6717 13.4999 12 13.4999C12.663 13.4999 13.2987 13.2364 13.7676 12.7675C14.2364 12.2987 14.5 11.663 14.5 10.9999C14.5 10.3369 14.2364 9.70119 13.7676 9.23236C13.2987 8.76355 12.663 8.49994 12 8.49994Z" stroke="white" stroke-opacity="0.5"/>
</svg>
